<svg width="1200" height="416" viewBox="0 0 1200 416" fill="none" xmlns="http://www.w3.org/2000/svg">
<rect y="94.7144" width="1200" height="321" rx="20" fill="#FFDC68"/>
<mask id="mask0_6003_1698" style="mask-type:alpha" maskUnits="userSpaceOnUse" x="0" y="0" width="1200" height="416">
<path d="M0 114.552C0 103.506 8.9543 94.5519 20 94.5519H700.231C705.82 94.5519 711.131 92.1768 715.06 88.2018C831.995 -30.0879 1060.22 -25.854 1105.52 79.6856C1109.15 88.1427 1116.97 94.5519 1126.17 94.5519H1180C1191.05 94.5519 1200 103.506 1200 114.552V396C1200 407.046 1191.05 416 1180 416H20C8.95429 416 0 407.046 0 396V114.552Z" fill="#D9D9D9"/>
</mask>
<g mask="url(#mask0_6003_1698)">
<path d="M619.936 226.32C622.039 220.344 621.912 213.81 619.577 207.921C617.243 202.031 612.858 197.183 607.23 194.27C601.603 191.357 595.112 190.574 588.953 192.067C582.794 193.559 577.382 197.226 573.714 202.392C570.045 207.557 568.368 213.874 568.99 220.179C569.612 226.483 572.492 232.35 577.099 236.7C581.707 241.05 587.731 243.589 594.063 243.849C600.395 244.11 606.608 242.075 611.557 238.119C660.295 280.947 631.166 333.157 629.764 335.591L629.626 335.838C628.515 337.918 601.643 386.84 536.374 390.178C523.217 390.976 510.039 388.991 497.7 384.356C485.362 379.72 474.139 372.537 464.764 363.274C457.866 356.639 452.386 348.673 448.656 339.86C444.926 331.047 443.023 321.569 443.061 311.999V295.049H447.203V263.176C464.156 260.312 479.373 251.081 489.742 237.372C490.043 236.975 490.259 236.521 490.378 236.038C490.497 235.554 490.516 235.052 490.434 234.561C490.351 234.07 490.17 233.601 489.9 233.182C489.631 232.763 489.279 232.404 488.865 232.126L488.858 232.121C493.817 224.726 497.175 216.375 498.715 207.606L507.321 157.06C508.174 152.061 507.643 146.924 505.787 142.204C503.93 137.485 500.819 133.362 496.789 130.282C491.743 126.504 485.59 124.5 479.287 124.582H471.322C470.218 123.138 468.809 121.954 467.196 121.115C465.583 120.275 463.805 119.801 461.988 119.725C458.651 119.632 455.414 120.866 452.987 123.156C450.56 125.447 449.142 128.607 449.044 131.942C449 134.554 449.782 137.114 451.278 139.257C452.774 141.399 454.908 143.015 457.377 143.874C459.845 144.734 462.522 144.793 465.026 144.043C467.53 143.293 469.733 141.772 471.322 139.697H479.532C482.324 139.65 485.059 140.491 487.341 142.099C489.262 143.491 490.756 145.392 491.653 147.587C492.549 149.783 492.814 152.186 492.415 154.524L483.816 205.026C482.635 211.706 480.068 218.065 476.28 223.693L476.052 223.54C475.289 223.03 474.36 222.828 473.454 222.974C472.547 223.121 471.73 223.605 471.166 224.329C466.963 229.666 461.603 233.981 455.491 236.949C449.379 239.917 442.673 241.461 435.878 241.464C429.083 241.467 422.376 239.929 416.261 236.967C410.146 234.005 404.783 229.695 400.575 224.362C400.011 223.636 399.194 223.151 398.287 223.003C397.38 222.855 396.451 223.055 395.685 223.563L395.449 223.721C391.659 218.099 389.09 211.745 387.909 205.069L379.362 154.879C378.847 152.133 379.22 149.294 380.426 146.773C381.476 144.649 383.101 142.86 385.115 141.61C387.129 140.359 389.452 139.697 391.823 139.697H400.395C401.5 141.142 402.909 142.325 404.522 143.165C406.135 144.004 407.913 144.479 409.731 144.555C413.067 144.648 416.304 143.413 418.731 141.122C421.158 138.831 422.576 135.671 422.674 132.336C422.717 129.724 421.935 127.164 420.439 125.022C418.942 122.88 416.808 121.264 414.34 120.405C411.871 119.546 409.195 119.487 406.691 120.237C404.187 120.987 401.984 122.508 400.395 124.582H392.43C386.127 124.5 379.973 126.505 374.928 130.283C370.898 133.363 367.786 137.486 365.93 142.205C364.074 146.925 363.543 152.062 364.396 157.061L373.01 207.649C374.548 216.406 377.903 224.745 382.857 232.129C382.443 232.405 382.09 232.763 381.819 233.181C381.549 233.599 381.366 234.068 381.283 234.558C381.2 235.049 381.218 235.552 381.336 236.035C381.454 236.519 381.67 236.973 381.97 237.37C392.356 251.07 407.572 260.301 424.523 263.186V295.049H428.655V311.999C428.62 323.525 430.923 334.938 435.427 345.548C439.93 356.158 446.54 365.745 454.856 373.728C475.262 393.626 502.65 404.748 531.156 404.714C533.129 404.714 535.118 404.663 537.111 404.561C558.412 403.834 579.193 397.793 597.564 386.989C615.934 376.185 631.31 360.961 642.293 342.701C649.771 328.53 653.782 312.79 653.997 296.77C654.16 276.962 647.796 250.198 619.936 226.32Z" fill="#FFCC26"/>
<rect x="-36" y="332.585" width="1236" height="64" rx="32" fill="#FFF9E1"/>
<circle cx="916" cy="500.585" r="372" fill="#FFCC26"/>
</g>
</svg>
