<svg width="88" height="90" viewBox="0 0 88 90" fill="none" xmlns="http://www.w3.org/2000/svg">
<g opacity="0.4">
<path d="M79.9433 33.3109C80.6004 31.4437 80.5606 29.4019 79.8314 27.5616C79.1021 25.7214 77.7325 24.2066 75.9747 23.2963C74.2169 22.386 72.1895 22.1415 70.2657 22.6078C68.3419 23.0741 66.6514 24.2199 65.5056 25.834C64.3597 27.4481 63.8357 29.4219 64.03 31.3919C64.2243 33.3618 65.1239 35.1952 66.5631 36.5543C68.0022 37.9134 69.884 38.7068 71.8618 38.7882C73.8396 38.8697 75.7802 38.2337 77.3263 36.9975C92.5497 50.3799 83.4513 66.6941 83.0133 67.4546L82.9703 67.5317C82.6231 68.1818 74.2295 83.4682 53.8423 84.5114C49.7325 84.7605 45.6164 84.1405 41.7623 82.692C37.9082 81.2435 34.4026 78.999 31.4742 76.1047C29.3197 74.0313 27.6081 71.5424 26.4429 68.7885C25.2778 66.0347 24.6833 63.0731 24.6954 60.083V54.7866H25.9892V44.8273C31.2844 43.9324 36.0376 41.0481 39.2764 36.7643C39.3703 36.6403 39.4378 36.4984 39.475 36.3473C39.5121 36.1963 39.518 36.0392 39.4924 35.8858C39.4668 35.7324 39.4101 35.5858 39.3259 35.455C39.2417 35.3243 39.1317 35.212 39.0026 35.1252L39.0002 35.1236C40.5493 32.8127 41.5981 30.2035 42.0792 27.4633L44.7675 11.6694C45.0337 10.1073 44.8679 8.50216 44.2881 7.02745C43.7082 5.55274 42.7363 4.26455 41.4775 3.30213C39.9015 2.12169 37.9795 1.49551 36.0106 1.52113H33.5228C33.1778 1.06981 32.7378 0.699894 32.2339 0.437598C31.7301 0.175301 31.1747 0.0270442 30.6071 0.00333636C29.5649 -0.0258322 28.5538 0.359794 27.7957 1.07553C27.0377 1.79127 26.5947 2.7786 26.564 3.82071C26.5503 4.63705 26.7945 5.4369 27.2618 6.10636C27.7292 6.77582 28.3959 7.28076 29.1669 7.54926C29.938 7.81776 30.7741 7.83614 31.5562 7.60179C32.3382 7.36743 33.0265 6.89228 33.5228 6.24401H36.0873C36.9593 6.22939 37.8135 6.49219 38.5265 6.9945C39.1266 7.4293 39.5931 8.02335 39.8732 8.70947C40.1533 9.39559 40.2359 10.1464 40.1115 10.877L37.4255 26.6571C37.0564 28.7444 36.2545 30.7313 35.0713 32.4901L35.0002 32.4424C34.7617 32.283 34.4718 32.2198 34.1886 32.2655C33.9055 32.3112 33.6501 32.4624 33.4739 32.6888C32.1611 34.3565 30.4871 35.7048 28.5779 36.6321C26.6688 37.5595 24.5742 38.0418 22.4517 38.0428C20.3292 38.0438 18.2342 37.5634 16.3242 36.6378C14.4141 35.7122 12.7389 34.3655 11.4245 32.699C11.2484 32.4724 10.9931 32.3207 10.7098 32.2744C10.4266 32.2281 10.1363 32.2906 9.89718 32.4494L9.82324 32.4988C8.63939 30.7421 7.83707 28.7566 7.46806 26.6706L4.79843 10.9878C4.63758 10.1297 4.75395 9.24261 5.13069 8.45501C5.4589 7.79116 5.96621 7.23231 6.59531 6.84161C7.22441 6.4509 7.95023 6.24391 8.69078 6.24401H11.3683C11.7133 6.69534 12.1534 7.06526 12.6573 7.32755C13.1612 7.58984 13.7167 7.73808 14.2843 7.76177C15.3265 7.79086 16.3376 7.40514 17.0956 6.68932C17.8536 5.9735 18.2965 4.9861 18.3271 3.94396C18.3407 3.12764 18.0965 2.32783 17.6291 1.65843C17.1617 0.989027 16.495 0.484154 15.724 0.215702C14.9529 -0.0527488 14.1168 -0.0710919 13.3348 0.163287C12.5527 0.397665 11.8645 0.872815 11.3682 1.52108H8.8803C6.9114 1.49549 4.9893 2.12174 3.41335 3.30227C2.15452 4.26474 1.18268 5.55296 0.602878 7.0277C0.0230716 8.50243 -0.14265 10.1076 0.123624 11.6697L2.81424 27.4769C3.29488 30.2132 4.3426 32.8186 5.89008 35.1259C5.7608 35.2123 5.65053 35.3243 5.56602 35.4548C5.48151 35.5853 5.42454 35.7318 5.3986 35.8851C5.37267 36.0384 5.3783 36.1955 5.41517 36.3465C5.45203 36.4976 5.51935 36.6396 5.613 36.7637C8.85708 41.0445 13.6099 43.9289 18.9048 44.8303V54.7866H20.1954V60.083C20.1844 63.6844 20.904 67.2506 22.3107 70.5659C23.7174 73.8812 25.7819 76.8767 28.3795 79.3713C34.7536 85.5887 43.3083 89.064 52.2125 89.0534C52.8287 89.0534 53.4498 89.0376 54.0723 89.0056C60.726 88.7782 67.2171 86.8907 72.9552 83.5148C78.6933 80.1389 83.4962 75.3818 86.9268 69.6762C89.2625 65.2484 90.5154 60.3299 90.5826 55.3242C90.6336 49.135 88.6455 40.7719 79.9433 33.3109Z" fill="#A1DFEC"/>
<path d="M49.2037 12.4243L46.5152 28.2185C46.2634 29.6461 45.8865 31.0488 45.3889 32.4104C45.5014 32.5442 45.6089 32.6787 45.7251 32.8119C52.1329 40.3674 59.9815 46.5708 68.8128 51.0602C69.1637 51.2306 69.5486 51.3192 69.9387 51.3192C70.3287 51.3192 70.7137 51.2306 71.0645 51.0602C73.8971 49.6639 76.6244 48.0635 79.2248 46.2717C78.4678 44.93 77.5659 43.6754 76.5352 42.5305C73.9953 43.4499 71.2285 43.5358 68.6364 42.7759C66.0443 42.0159 63.7619 40.4496 62.1205 38.3043C60.4791 36.159 59.5641 33.5465 59.5084 30.8458C59.4527 28.1452 60.2591 25.4971 61.8107 23.286C63.3623 21.0749 65.5782 19.4158 68.1367 18.5496C70.6953 17.6834 73.4633 17.6552 76.039 18.469C78.6146 19.2829 80.8639 20.8965 82.4602 23.0755C84.0565 25.2546 84.9168 27.8857 84.9161 30.5869C84.9161 30.9638 84.899 31.3402 84.8648 31.716C86.6828 33.4791 88.3116 35.4272 89.7247 37.5287C91.2514 36.016 92.7273 34.4437 94.1523 32.8119C110.646 13.9097 88.8477 -10.9094 70.7882 5.33123C70.5536 5.5382 70.2515 5.6524 69.9387 5.6524C69.6258 5.6524 69.3237 5.5382 69.0891 5.33123C61.4572 -1.53202 53.158 -1.06177 47.3628 3.19515C49.0926 5.93963 49.7481 9.22617 49.2037 12.4243Z" fill="#FFB6BE"/>
</g>
</svg>
